<svg width="21" height="20" viewBox="0 0 21 20" fill="none" xmlns="http://www.w3.org/2000/svg">
<path d="M18.7582 20C8.09447 20.015 0.000724604 11.825 0.0119746 1.25375C0.0119746 0.5625 0.571975 0 1.26197 0H4.56197C5.18072 0 5.70697 0.455 5.79822 1.0675C6.01585 2.53632 6.44312 3.96631 7.06697 5.31375L7.19572 5.59125C7.28221 5.77799 7.30081 5.98905 7.24833 6.18804C7.19584 6.38703 7.07556 6.56146 6.90823 6.68125C5.88573 7.41125 5.49572 8.88 6.29198 10.025C7.29073 11.4625 8.54947 12.7225 9.98697 13.7213C11.1332 14.5163 12.602 14.1263 13.3307 13.105C13.4504 12.9372 13.625 12.8164 13.8242 12.7637C14.0235 12.711 14.235 12.7296 14.422 12.8163L14.6982 12.9438C16.0457 13.5688 17.4757 13.9963 18.9445 14.2138C19.557 14.305 20.012 14.8313 20.012 15.4513V18.75C20.012 18.9143 19.9796 19.0769 19.9167 19.2286C19.8538 19.3804 19.7616 19.5182 19.6454 19.6343C19.5292 19.7504 19.3913 19.8425 19.2395 19.9052C19.0877 19.968 18.925 20.0002 18.7607 20H18.7582Z" fill="#B87EF1"/>
</svg>
